<svg xmlns="http://www.w3.org/2000/svg" viewBox="0 -64.8 64.37 64.73" width="889" height="935">
  <rect x="0" y="-64.8" width="64.37" height="64.73" fill="white"/>
  <path d="M31.32-0.07L31.32-64.80C29.30-64.73 27.43-64.51 25.56-64.08C10.94-60.98 0-47.95 0-32.40C0-16.92 10.94-3.89 25.56-0.79C27.43-0.36 29.30-0.14 31.32-0.07ZM25.56-6.70C14.11-9.72 5.76-20.09 5.76-32.40C5.76-44.78 14.11-55.15 25.56-58.18ZM33.48-0.07C35.42-0.14 37.37-0.36 39.24-0.79C51.98-3.53 61.92-13.75 64.30-26.57L64.37-26.71L39.24-41.18L39.24-58.18C47.95-55.87 54.94-49.25 57.67-40.75L63.72-40.75C60.62-52.49 51.12-61.56 39.24-64.08C37.37-64.51 35.42-64.73 33.48-64.80L33.48-37.87L57.67-23.90C54.79-15.48 47.88-9.00 39.24-6.70L39.24-24.05L33.48-24.05Z" fill="#0a141e"/>
</svg>
